<svg width="71" height="70" viewBox="0 0 71 70" fill="none" xmlns="http://www.w3.org/2000/svg">
<rect x="2.20619" y="35" width="46.4975" height="46.4975" rx="3.5" transform="rotate(-45 2.20619 35)" fill="black" stroke="white" stroke-width="3"/>
<rect x="21.0849" y="18" width="20" height="20" transform="rotate(-45 21.0849 18)" fill="#D6001A"/>
<rect width="20" height="20" transform="matrix(0.707107 -0.707107 0.708369 0.705842 6.08487 33)" fill="#00C5D1"/>
<rect x="21.0849" y="48" width="20" height="20" transform="rotate(-45 21.0849 48)" fill="#FF8A00"/>
<rect x="36.0849" y="33" width="20" height="20" transform="rotate(-45 36.0849 33)" fill="#00B712"/>
<g filter="url(#filter0_d)">
<path d="M17.8129 39.168C16.5569 39.168 15.5849 38.892 14.8969 38.34C14.2169 37.788 13.8769 36.892 13.8769 35.652V31.632H13.2769V29.664H17.7169V31.632H17.2369V36.264C17.2369 36.528 17.2929 36.724 17.4049 36.852C17.5249 36.972 17.7009 37.032 17.9329 37.032C18.1649 37.032 18.3369 36.972 18.4489 36.852C18.5689 36.724 18.6289 36.528 18.6289 36.264V31.632H18.1489V29.664H22.2649V31.632H21.6649V35.652C21.6649 36.892 21.3329 37.788 20.6689 38.34C20.0049 38.892 19.0529 39.168 17.8129 39.168ZM36.3319 29.664H40.2679V31.632H39.6679V39H36.2959L32.7799 33.588V37.032H33.3559V39H29.4199V37.032H30.0199V31.632H29.4199V29.664H33.7519L36.9079 34.476V31.632H36.3319V29.664ZM51.9605 39.168C50.4965 39.168 49.3645 38.784 48.5645 38.016C47.7725 37.248 47.3765 36.02 47.3765 34.332C47.3765 32.644 47.7725 31.416 48.5645 30.648C49.3645 29.88 50.4965 29.496 51.9605 29.496C53.4245 29.496 54.5525 29.88 55.3445 30.648C56.1445 31.416 56.5445 32.644 56.5445 34.332C56.5445 36.02 56.1445 37.248 55.3445 38.016C54.5525 38.784 53.4245 39.168 51.9605 39.168ZM51.9605 37.032C52.2325 37.032 52.4365 36.96 52.5725 36.816C52.7085 36.672 52.7765 36.448 52.7765 36.144V32.52C52.7765 32.216 52.7085 31.992 52.5725 31.848C52.4365 31.704 52.2325 31.632 51.9605 31.632C51.6885 31.632 51.4845 31.704 51.3485 31.848C51.2125 31.992 51.1445 32.216 51.1445 32.52V36.144C51.1445 36.456 51.2125 36.684 51.3485 36.828C51.4845 36.964 51.6885 37.032 51.9605 37.032Z" fill="white"/>
<path d="M14.8969 38.34L14.2666 39.1164L14.2711 39.12L14.8969 38.34ZM13.8769 31.632H14.8769V30.632H13.8769V31.632ZM13.2769 31.632H12.2769V32.632H13.2769V31.632ZM13.2769 29.664V28.664H12.2769V29.664H13.2769ZM17.7169 29.664H18.7169V28.664H17.7169V29.664ZM17.7169 31.632V32.632H18.7169V31.632H17.7169ZM17.2369 31.632V30.632H16.2369V31.632H17.2369ZM17.4049 36.852L16.6523 37.5105L16.6742 37.5355L16.6978 37.5591L17.4049 36.852ZM18.4489 36.852L17.7193 36.168L17.7178 36.1697L18.4489 36.852ZM18.6289 31.632H19.6289V30.632H18.6289V31.632ZM18.1489 31.632H17.1489V32.632H18.1489V31.632ZM18.1489 29.664V28.664H17.1489V29.664H18.1489ZM22.2649 29.664H23.2649V28.664H22.2649V29.664ZM22.2649 31.632V32.632H23.2649V31.632H22.2649ZM21.6649 31.632V30.632H20.6649V31.632H21.6649ZM20.6689 38.34L20.0296 37.571L20.6689 38.34ZM17.8129 38.168C16.6901 38.168 15.9714 37.92 15.5227 37.56L14.2711 39.12C15.1983 39.8639 16.4236 40.168 17.8129 40.168V38.168ZM15.5271 37.5636C15.1667 37.271 14.8769 36.7217 14.8769 35.652H12.8769C12.8769 37.0622 13.2671 38.305 14.2666 39.1164L15.5271 37.5636ZM14.8769 35.652V31.632H12.8769V35.652H14.8769ZM13.8769 30.632H13.2769V32.632H13.8769V30.632ZM14.2769 31.632V29.664H12.2769V31.632H14.2769ZM13.2769 30.664H17.7169V28.664H13.2769V30.664ZM16.7169 29.664V31.632H18.7169V29.664H16.7169ZM17.7169 30.632H17.2369V32.632H17.7169V30.632ZM16.2369 31.632V36.264H18.2369V31.632H16.2369ZM16.2369 36.264C16.2369 36.6423 16.313 37.1227 16.6523 37.5105L18.1574 36.1935C18.2159 36.2603 18.2358 36.3182 18.2404 36.3342C18.2442 36.3474 18.2369 36.3289 18.2369 36.264H16.2369ZM16.6978 37.5591C17.0656 37.927 17.5353 38.032 17.9329 38.032V36.032C17.9006 36.032 17.9116 36.0275 17.9495 36.0405C17.9922 36.055 18.0538 36.0867 18.112 36.1449L16.6978 37.5591ZM17.9329 38.032C18.3249 38.032 18.8115 37.9291 19.1799 37.5343L17.7178 36.1697C17.7842 36.0985 17.8564 36.0602 17.9065 36.0428C17.9508 36.0273 17.9659 36.032 17.9329 36.032V38.032ZM19.1784 37.5359C19.5422 37.1478 19.6289 36.6567 19.6289 36.264H17.6289C17.6289 36.3237 17.6217 36.3359 17.6277 36.3163C17.6349 36.2927 17.6587 36.2327 17.7193 36.168L19.1784 37.5359ZM19.6289 36.264V31.632H17.6289V36.264H19.6289ZM18.6289 30.632H18.1489V32.632H18.6289V30.632ZM19.1489 31.632V29.664H17.1489V31.632H19.1489ZM18.1489 30.664H22.2649V28.664H18.1489V30.664ZM21.2649 29.664V31.632H23.2649V29.664H21.2649ZM22.2649 30.632H21.6649V32.632H22.2649V30.632ZM20.6649 31.632V35.652H22.6649V31.632H20.6649ZM20.6649 35.652C20.6649 36.729 20.3788 37.2807 20.0296 37.571L21.3081 39.1089C22.287 38.2952 22.6649 37.0549 22.6649 35.652H20.6649ZM20.0296 37.571C19.6093 37.9204 18.919 38.168 17.8129 38.168V40.168C19.1867 40.168 20.4005 39.8635 21.3081 39.1089L20.0296 37.571ZM36.3319 29.664V28.664H35.3319V29.664H36.3319ZM40.2679 29.664H41.2679V28.664H40.2679V29.664ZM40.2679 31.632V32.632H41.2679V31.632H40.2679ZM39.6679 31.632V30.632H38.6679V31.632H39.6679ZM39.6679 39V40H40.6679V39H39.6679ZM36.2959 39L35.4573 39.5448L35.753 40H36.2959V39ZM32.7799 33.588L33.6184 33.0432L31.7799 30.2132V33.588H32.7799ZM32.7799 37.032H31.7799V38.032H32.7799V37.032ZM33.3559 37.032H34.3559V36.032H33.3559V37.032ZM33.3559 39V40H34.3559V39H33.3559ZM29.4199 39H28.4199V40H29.4199V39ZM29.4199 37.032V36.032H28.4199V37.032H29.4199ZM30.0199 37.032V38.032H31.0199V37.032H30.0199ZM30.0199 31.632H31.0199V30.632H30.0199V31.632ZM29.4199 31.632H28.4199V32.632H29.4199V31.632ZM29.4199 29.664V28.664H28.4199V29.664H29.4199ZM33.7519 29.664L34.5881 29.1155L34.2919 28.664H33.7519V29.664ZM36.9079 34.476L36.0717 35.0244L37.9079 37.8241V34.476H36.9079ZM36.9079 31.632H37.9079V30.632H36.9079V31.632ZM36.3319 31.632H35.3319V32.632H36.3319V31.632ZM36.3319 30.664H40.2679V28.664H36.3319V30.664ZM39.2679 29.664V31.632H41.2679V29.664H39.2679ZM40.2679 30.632H39.6679V32.632H40.2679V30.632ZM38.6679 31.632V39H40.6679V31.632H38.6679ZM39.6679 38H36.2959V40H39.6679V38ZM37.1344 38.4552L33.6184 33.0432L31.9413 34.1328L35.4573 39.5448L37.1344 38.4552ZM31.7799 33.588V37.032H33.7799V33.588H31.7799ZM32.7799 38.032H33.3559V36.032H32.7799V38.032ZM32.3559 37.032V39H34.3559V37.032H32.3559ZM33.3559 38H29.4199V40H33.3559V38ZM30.4199 39V37.032H28.4199V39H30.4199ZM29.4199 38.032H30.0199V36.032H29.4199V38.032ZM31.0199 37.032V31.632H29.0199V37.032H31.0199ZM30.0199 30.632H29.4199V32.632H30.0199V30.632ZM30.4199 31.632V29.664H28.4199V31.632H30.4199ZM29.4199 30.664H33.7519V28.664H29.4199V30.664ZM32.9157 30.2124L36.0717 35.0244L37.7441 33.9275L34.5881 29.1155L32.9157 30.2124ZM37.9079 34.476V31.632H35.9079V34.476H37.9079ZM36.9079 30.632H36.3319V32.632H36.9079V30.632ZM37.3319 31.632V29.664H35.3319V31.632H37.3319ZM48.5645 38.016L47.8683 38.7339L47.8719 38.7374L48.5645 38.016ZM48.5645 30.648L47.8719 29.9266L47.8683 29.9301L48.5645 30.648ZM55.3445 30.648L54.6483 31.3659L54.6519 31.3694L55.3445 30.648ZM55.3445 38.016L54.6519 37.2946L54.6483 37.2981L55.3445 38.016ZM52.5725 36.816L53.2995 37.5026L52.5725 36.816ZM52.5725 31.848L53.2995 31.1613V31.1613L52.5725 31.848ZM51.3485 31.848L52.0755 32.5346V32.5346L51.3485 31.848ZM51.3485 36.828L50.6214 37.5146L50.6313 37.525L50.6414 37.5351L51.3485 36.828ZM51.9605 38.168C50.6695 38.168 49.8173 37.8324 49.257 37.2946L47.8719 38.7374C48.9117 39.7355 50.3235 40.168 51.9605 40.168V38.168ZM49.2606 37.2981C48.745 36.7981 48.3765 35.8907 48.3765 34.332H46.3765C46.3765 36.1493 46.7999 37.6978 47.8683 38.7339L49.2606 37.2981ZM48.3765 34.332C48.3765 32.7733 48.745 31.8658 49.2606 31.3659L47.8683 29.9301C46.7999 30.9661 46.3765 32.5147 46.3765 34.332H48.3765ZM49.257 31.3694C49.8173 30.8315 50.6695 30.496 51.9605 30.496V28.496C50.3235 28.496 48.9117 28.9284 47.8719 29.9266L49.257 31.3694ZM51.9605 30.496C53.2521 30.496 54.0975 30.8317 54.6483 31.3659L56.0406 29.9301C55.0074 28.9282 53.5968 28.496 51.9605 28.496V30.496ZM54.6519 31.3694C55.1731 31.8697 55.5445 32.7757 55.5445 34.332H57.5445C57.5445 32.5122 57.1158 30.9623 56.037 29.9266L54.6519 31.3694ZM55.5445 34.332C55.5445 35.8882 55.1731 36.7943 54.6519 37.2946L56.037 38.7374C57.1158 37.7017 57.5445 36.1517 57.5445 34.332H55.5445ZM54.6483 37.2981C54.0975 37.8322 53.2521 38.168 51.9605 38.168V40.168C53.5968 40.168 55.0074 39.7357 56.0406 38.7339L54.6483 37.2981ZM51.9605 38.032C52.4017 38.032 52.9124 37.9124 53.2995 37.5026L51.8454 36.1293C51.8964 36.0754 51.9508 36.0469 51.9846 36.035C52.013 36.025 52.011 36.032 51.9605 36.032V38.032ZM53.2995 37.5026C53.6845 37.0949 53.7765 36.5707 53.7765 36.144H51.7765C51.7765 36.1831 51.7742 36.211 51.7719 36.2292C51.7696 36.2474 51.7674 36.2533 51.7686 36.2495C51.7698 36.2454 51.7748 36.2303 51.7871 36.2081C51.7997 36.1855 51.8186 36.1578 51.8454 36.1293L53.2995 37.5026ZM53.7765 36.144V32.52H51.7765V36.144H53.7765ZM53.7765 32.52C53.7765 32.0932 53.6845 31.569 53.2995 31.1613L51.8454 32.5346C51.8186 32.5061 51.7997 32.4784 51.7871 32.4558C51.7748 32.4336 51.7698 32.4185 51.7686 32.4145C51.7674 32.4106 51.7696 32.4165 51.7719 32.4347C51.7742 32.4529 51.7765 32.4808 51.7765 32.52H53.7765ZM53.2995 31.1613C52.9124 30.7515 52.4017 30.632 51.9605 30.632V32.632C52.011 32.632 52.013 32.639 51.9846 32.629C51.9508 32.617 51.8964 32.5886 51.8454 32.5346L53.2995 31.1613ZM51.9605 30.632C51.5192 30.632 51.0085 30.7515 50.6214 31.1613L52.0755 32.5346C52.0245 32.5886 51.9701 32.617 51.9363 32.629C51.9079 32.639 51.9099 32.632 51.9605 32.632V30.632ZM50.6214 31.1613C50.2365 31.569 50.1445 32.0932 50.1445 32.52H52.1445C52.1445 32.4808 52.1467 32.4529 52.149 32.4347C52.1514 32.4165 52.1535 32.4106 52.1523 32.4145C52.1511 32.4185 52.1461 32.4336 52.1338 32.4558C52.1213 32.4784 52.1024 32.5061 52.0755 32.5346L50.6214 31.1613ZM50.1445 32.52V36.144H52.1445V32.52H50.1445ZM50.1445 36.144C50.1445 36.5702 50.2327 37.103 50.6214 37.5146L52.0755 36.1413C52.1344 36.2037 52.152 36.2572 52.1538 36.2632C52.1545 36.2656 52.152 36.2579 52.1494 36.2373C52.1468 36.2167 52.1445 36.1861 52.1445 36.144H50.1445ZM50.6414 37.5351C51.031 37.9248 51.5343 38.032 51.9605 38.032V36.032C51.9048 36.032 51.8968 36.0247 51.9197 36.0323C51.9474 36.0415 52.0014 36.0667 52.0556 36.1209L50.6414 37.5351Z" fill="black"/>
</g>
<defs>
<filter id="filter0_d" x="12.2769" y="28.496" width="46.2676" height="12.672" filterUnits="userSpaceOnUse" color-interpolation-filters="sRGB">
<feFlood flood-opacity="0" result="BackgroundImageFix"/>
<feColorMatrix in="SourceAlpha" type="matrix" values="0 0 0 0 0 0 0 0 0 0 0 0 0 0 0 0 0 0 127 0"/>
<feOffset dx="1" dy="1"/>
<feColorMatrix type="matrix" values="0 0 0 0 0 0 0 0 0 0 0 0 0 0 0 0 0 0 0.56 0"/>
<feBlend mode="normal" in2="BackgroundImageFix" result="effect1_dropShadow"/>
<feBlend mode="normal" in="SourceGraphic" in2="effect1_dropShadow" result="shape"/>
</filter>
</defs>
</svg>
