<svg width="27" height="27" viewBox="0 0 27 27" fill="none" xmlns="http://www.w3.org/2000/svg">
<g filter="url(#filter0_d)">
<path d="M21.3768 10.1144C21.1581 9.3477 20.8837 8.63457 20.5 7.94929L22.914 5.53795L19.428 2.08369L17.014 4.49503C15.6698 3.72837 14.1326 3.3172 12.5418 3.28936L11.6628 0L6.91622 1.26135L7.79307 4.55071C6.42098 5.34521 5.29543 6.49734 4.52791 7.81223L1.23489 6.93635L0 11.7055L3.29303 12.5814C3.29303 13.3502 3.40237 14.1168 3.59532 14.8856C3.814 15.6523 4.08841 16.3654 4.47217 17.0507L2.05814 19.4621L5.54412 22.9163L7.95815 20.505C9.30238 21.2716 10.8396 21.6828 12.4303 21.7106L13.3093 25L18.0559 23.7386L17.1791 20.4493C18.5512 19.6548 19.6767 18.5027 20.4442 17.1878L23.7372 18.0636L25 13.3223L21.707 12.4443C21.707 11.6498 21.5976 10.8832 21.3768 10.1144ZM13.6116 16.6395C11.3069 17.2413 8.97436 15.8986 8.34191 13.5965C7.7116 11.2943 9.0837 8.96437 11.3884 8.33262C13.6931 7.73085 16.0256 9.07358 16.6581 11.3757C17.2605 13.6778 15.8884 16.0356 13.6116 16.6395Z" fill="black"/>
<path d="M20.896 10.2515L20.8962 10.2524C21.1044 10.9771 21.207 11.6973 21.207 12.4443V12.8285L21.5782 12.9274L24.3882 13.6767L23.3827 17.452L20.5727 16.7046L20.2045 16.6066L20.0124 16.9357C19.2871 18.1783 18.223 19.2671 16.9285 20.0166L16.5974 20.2083L16.6959 20.5781L17.4439 23.3839L13.6635 24.3885L12.9134 21.5816L12.816 21.2173L12.4391 21.2107C10.9287 21.1843 9.47419 20.794 8.20586 20.0706L7.8746 19.8817L7.60479 20.1512L5.54271 22.211L2.76707 19.4606L4.82553 17.4045L5.09346 17.1368L4.90843 16.8064C4.54911 16.1648 4.28865 15.4919 4.07834 14.7562C3.89484 14.0229 3.79303 13.3 3.79303 12.5814V12.197L3.42155 12.0982L0.608546 11.35L1.59276 7.54893L4.39939 8.29543L4.76764 8.39338L4.95973 8.06429C5.68504 6.82171 6.74917 5.73295 8.04362 4.98341L8.37476 4.79166L8.2762 4.42192L7.52823 1.61607L11.3087 0.611463L12.0588 3.41844L12.1561 3.78269L12.5331 3.78928C14.0435 3.81572 15.4979 4.20598 16.7663 4.92936L17.0975 5.11829L17.3673 4.84878L19.4294 2.78899L22.2051 5.53937L20.1466 7.59554L19.8787 7.86317L20.0637 8.19359C20.4243 8.83747 20.6853 9.51283 20.896 10.2515ZM13.7379 17.1233L13.7398 17.1228C16.2851 16.4477 17.8134 13.8156 17.1418 11.2491L17.1418 11.2491L17.1402 11.2433C16.4352 8.6769 13.8312 7.17803 11.2621 7.84884L11.2621 7.8488L11.2562 7.85041C8.69345 8.55289 7.15422 11.152 7.85966 13.7285L7.85977 13.7289C8.56481 16.2953 11.1688 17.7941 13.7379 17.1233ZM21.707 12.4443C21.707 11.6498 21.5976 10.8832 21.3768 10.1144L21.707 12.4443Z" stroke="white"/>
</g>
<defs>
<filter id="filter0_d" x="0" y="0" width="27" height="27" filterUnits="userSpaceOnUse" color-interpolation-filters="sRGB">
<feFlood flood-opacity="0" result="BackgroundImageFix"/>
<feColorMatrix in="SourceAlpha" type="matrix" values="0 0 0 0 0 0 0 0 0 0 0 0 0 0 0 0 0 0 127 0"/>
<feOffset dx="2" dy="2"/>
<feColorMatrix type="matrix" values="0 0 0 0 1 0 0 0 0 1 0 0 0 0 1 0 0 0 0.5 0"/>
<feBlend mode="normal" in2="BackgroundImageFix" result="effect1_dropShadow"/>
<feBlend mode="normal" in="SourceGraphic" in2="effect1_dropShadow" result="shape"/>
</filter>
</defs>
</svg>
